<svg width="1440" height="900" viewBox="0 0 1440 900" fill="none" xmlns="http://www.w3.org/2000/svg">
<g clip-path="url(#clip0)">
<rect width="1440" height="900" fill="url(#paint0_linear)"/>
<circle opacity="0.5" cx="1332.5" cy="798.5" r="305" stroke="white" stroke-linecap="round" stroke-dasharray="10 10"/>
<circle cx="1332.5" cy="798.5" r="258.5" fill="#2399B9"/>
<g opacity="0.5">
<path d="M37.435 390.7C8.303 378.966 -19.1195 361.577 -43.1654 338.499L-259.385 130.985C-360.24 34.1916 -363.531 -126.033 -266.738 -226.887L-263.707 -230.045C-166.914 -330.899 -6.68916 -334.191 94.1651 -237.398L310.385 -29.8832C411.239 66.9103 414.531 227.135 317.738 327.989L314.707 331.147C240.991 407.955 130.488 428.178 37.435 390.7Z" stroke="white" stroke-linecap="round" stroke-linejoin="round" stroke-dasharray="8 8"/>
<path d="M352.688 144.31C332.527 168.392 307.517 189.097 278.135 204.836L13.9615 346.348C-109.261 412.354 -262.659 365.976 -328.665 242.753L-330.732 238.895C-396.739 115.672 -350.358 -37.7272 -227.136 -103.734L37.038 -245.246C160.261 -311.252 313.658 -264.874 379.664 -141.651L381.732 -137.793C432 -43.9519 417.086 67.3929 352.688 144.31Z" stroke="white" stroke-linecap="round" stroke-linejoin="round" stroke-dasharray="8 8"/>
<path d="M215.776 -231.65C232.447 -205.034 244.412 -174.85 250.301 -142.044L303.256 152.929C327.955 290.516 236.438 422.076 98.8507 446.776L94.5437 447.549C-43.0437 472.249 -174.602 380.734 -199.301 243.147L-252.254 -51.8287C-276.953 -189.416 -185.438 -320.974 -47.8508 -345.674L-43.5438 -346.447C61.2375 -365.258 162.527 -316.664 215.776 -231.65Z" stroke="white" stroke-linecap="round" stroke-linejoin="round" stroke-dasharray="8 8"/>
<path d="M-184.091 -217.622C-153.624 -225.251 -121.22 -227.302 -88.1994 -222.765L208.7 -181.971C347.185 -162.943 444.027 -35.255 424.999 103.231L424.403 107.566C405.376 246.052 277.687 342.893 139.202 323.865L-157.699 283.073C-296.185 264.045 -393.027 136.357 -373.999 -2.12846L-373.403 -6.46365C-358.912 -111.929 -281.399 -193.243 -184.091 -217.622Z" stroke="white" stroke-linecap="round" stroke-linejoin="round" stroke-dasharray="8 8"/>
<path d="M-294.312 167.014C-292.156 135.684 -284.089 104.23 -269.573 74.2289L-139.031 -195.534C-78.1414 -321.364 73.2239 -374.006 199.054 -313.116L202.993 -311.209C328.823 -250.319 381.462 -98.9563 320.573 26.8735L190.031 296.636C129.141 422.466 -22.2239 475.108 -148.054 414.218L-151.993 412.311C-247.822 365.938 -301.202 267.093 -294.312 167.014Z" stroke="white" stroke-linecap="round" stroke-linejoin="round" stroke-dasharray="8 8"/>
</g>
<g opacity="0.4">
<path d="M-44.6981 984.254C-52.6588 960.315 -54.9812 934.86 -51.4844 909.875C-47.9875 884.89 -38.7658 861.051 -24.5386 840.217C-9.95831 819.628 9.18161 802.686 31.3881 790.712C53.5946 778.738 78.2672 772.056 103.481 771.188C213.124 768.311 306.62 875.204 415.441 861.389C481.254 853.037 534.678 800.003 561.331 739.252C587.985 678.501 592.443 610.647 594.699 544.306C596.954 477.965 597.624 410.542 617.581 347.307C656.268 224.964 765.863 133 888.355 94.9581C1010.85 56.916 1144.42 67.554 1267.82 102.638C1391.22 137.721 1506.5 196.144 1620.9 254.208" stroke="white" stroke-opacity="0.5" stroke-miterlimit="10"/>
<g opacity="0.3">
<path opacity="0.61" d="M-22.7193 872.054C-39.9486 798.782 4.59734 733.822 63.4153 712.644C122.233 691.465 191.395 704.043 257.712 719.739C324.029 735.435 391.891 754.419 455.058 745.404C566.549 729.502 641.383 629.373 684.92 519.88C728.458 410.387 749.206 286.936 797.862 180.876C906.447 -55.7506 1160.62 -181.724 1421.76 -128.147" stroke="white" stroke-opacity="0.5" stroke-width="0.25" stroke-miterlimit="10"/>
<path opacity="0.61" d="M1423.76 -111.451C1271.13 -143.652 1120.38 -115.618 998.96 -39.9325C909.399 15.9801 837.747 96.3988 792.497 191.791C776.003 227.058 761.84 263.369 750.102 300.491C725.093 377.195 705.799 457.535 676.003 531.416C652.3 589.915 619.625 645.603 576.522 685.853C537.012 722.975 489.37 746.831 434.148 753.209C372.243 760.432 305.993 742.789 241.394 728.273C208.837 721.002 175.831 714.596 143.761 712.711C111.692 710.827 80.5543 713.542 51.9704 724.277C-5.3391 745.803 -48.6487 808.585 -33.3719 880.062" stroke="white" stroke-opacity="0.5" stroke-width="0.29" stroke-miterlimit="10" stroke-dasharray="12.75 0.25 22.75 0.25 0.83 0.25"/>
<path opacity="0.61" d="M1425.83 -94.7688C1272.54 -127.966 1120.85 -101.589 997.889 -27.2103C907.203 27.8125 834.093 107.562 787.14 202.677C769.991 237.847 755.242 274.136 742.992 311.297C716.97 387.941 697.372 468.835 666.956 543.028C642.148 603.202 607.636 660.039 561.712 699.328C519.891 735.116 469.778 755.773 413.02 760.941C352.394 766.487 287.813 750.027 224.82 736.755C193.143 730.175 160.824 724.471 129.449 723.26C98.0743 722.049 68.0616 725.186 40.3091 736.011C-15.305 757.776 -57.375 818.428 -43.9322 888.142" stroke="white" stroke-opacity="0.5" stroke-width="0.33" stroke-miterlimit="10" stroke-dasharray="12.5 0.5 22.5 0.5 1.67 0.5"/>
<path opacity="0.61" d="M1427.87 -78.0646C1273.96 -112.28 1121.18 -87.5504 996.864 -14.365C905.056 39.7444 830.48 118.786 781.794 213.581C763.961 248.622 748.611 284.873 735.86 322.065C708.933 398.836 688.897 480.012 658.057 554.553C632.082 616.464 595.902 674.526 547.095 712.79C502.972 747.388 450.433 764.796 392.096 768.679C332.752 772.597 269.841 757.32 208.429 745.206C177.429 739.184 145.948 734.27 115.38 733.666C84.8119 733.063 55.684 736.812 28.7145 747.732C-25.2602 769.769 -66.0938 828.242 -54.6551 896.116" stroke="white" stroke-opacity="0.5" stroke-width="0.38" stroke-miterlimit="10" stroke-dasharray="12.25 0.75 22.25 0.75 2.5 0.75"/>
<path opacity="0.61" d="M1429.91 -61.3892C1275.39 -96.5552 1121.48 -73.4999 995.76 -1.69819C902.805 51.5147 826.761 129.887 776.374 224.404C757.885 259.325 741.947 295.538 728.684 332.76C700.798 409.564 680.524 491.406 649.029 566.029C622.01 629.503 584.067 688.972 532.367 726.192C485.98 759.579 430.983 773.856 370.975 776.381C312.96 778.796 251.636 764.472 191.881 753.649C161.562 748.232 130.938 744.098 101.063 743.993C71.6366 743.926 43.0674 748.202 17.1149 759.23C-35.2502 781.531 -74.919 837.918 -65.3315 903.912" stroke="white" stroke-opacity="0.5" stroke-width="0.42" stroke-miterlimit="10" stroke-dasharray="12 1 22 1 3.33 1"/>
<path opacity="0.61" d="M1431.95 -44.6664C1276.8 -80.8876 1121.83 -59.5017 994.71 11.0614C902.433 62.1108 824.797 138.983 771.083 235.401C751.919 270.186 735.387 306.357 721.625 343.611C692.754 420.49 672.105 502.676 640.111 577.691C612.02 642.896 572.335 703.635 517.73 739.792C469.09 771.986 411.646 783.15 350.076 784.205C293.392 785.163 233.674 771.783 175.555 762.213C145.946 757.41 116.065 753.945 87.0728 754.578C58.5754 755.199 30.8223 759.926 5.58884 771.112C-45.1446 793.713 -83.4164 847.854 -75.9499 912.151" stroke="white" stroke-opacity="0.5" stroke-width="0.46" stroke-miterlimit="10" stroke-dasharray="11.75 1.25 21.75 1.25 4.17 1.25"/>
<path opacity="0.61" d="M1354.97 -42.0308C1226.16 -57.088 1100.47 -33.6641 993.66 23.8216C900.069 74.083 821.188 150.328 765.736 246.306C745.899 280.963 728.771 317.102 714.504 354.399C684.674 431.311 663.677 513.977 631.137 589.26C601.953 656.158 560.632 718.305 503.037 753.298C452.174 784.307 392.25 792.43 329.084 791.957C273.664 791.6 215.594 779.064 159.089 770.708C130.189 766.519 101.132 763.778 72.9472 765.018C45.2877 766.128 18.4303 771.486 -5.94996 782.8C-51.3229 803.925 -86.4281 849.915 -87.0238 906.001" stroke="white" stroke-opacity="0.5" stroke-width="0.5" stroke-miterlimit="10" stroke-dasharray="11.61 1.51 21.71 1.51 5.05 1.51"/>
<path opacity="0.61" d="M1420.52 -14.895C1399.69 -19.4497 1378.85 -23.0557 1358.01 -25.7129" stroke="white" stroke-opacity="0.5" stroke-width="0.54" stroke-miterlimit="10" stroke-dasharray="20.95 1.73 5.75 1.73"/>
<path opacity="0.61" d="M1356.14 -25.9499C1226.89 -41.8816 1100.44 -19.7671 992.581 36.5733C897.807 85.9701 817.523 161.705 760.368 257.173C739.876 291.718 722.158 327.836 707.383 365.186C676.593 442.132 655.238 525.258 622.183 600.818C591.876 669.401 548.774 732.839 488.36 766.871C435.254 796.706 372.874 801.872 308.08 799.817C254.029 798.107 197.528 786.411 142.647 779.289C114.428 775.706 86.1767 773.698 58.783 775.606C31.9896 777.338 5.99975 783.194 -17.5461 794.647C-61.3047 815.957 -95.1248 860.068 -97.3145 914.199" stroke="white" stroke-opacity="0.5" stroke-width="0.54" stroke-miterlimit="10" stroke-dasharray="11.09 1.73 20.95 1.73 5.75 1.73"/>
<path opacity="0.61" d="M1438.08 5.40584C1434.21 4.45473 1430.35 3.50361 1426.43 2.65234" stroke="white" stroke-opacity="0.5" stroke-width="0.58" stroke-miterlimit="10"/>
<path opacity="0.61" d="M1422.22 1.62686C1400.19 -3.3281 1378.18 -7.19401 1356.19 -9.97083" stroke="white" stroke-opacity="0.5" stroke-width="0.58" stroke-miterlimit="10" stroke-dasharray="21.21 2.02 6.73 2.02"/>
<path opacity="0.61" d="M1353.98 -10.312C1225.43 -26.3177 1099.5 -5.3935 991.51 49.2954C895.508 97.8792 813.914 173.175 755.015 268.107C733.86 302.513 715.548 338.588 700.263 375.973C668.503 452.934 646.83 536.547 613.21 612.387C581.799 682.644 537.084 747.401 473.673 780.299C418.366 808.987 353.463 811.21 287.019 807.534C234.294 804.573 179.405 793.616 126.13 787.739C98.6508 784.777 71.1936 783.485 44.5661 785.973C18.9093 787.973 -6.12791 794.864 -29.1948 806.274C-71.3204 827.759 -103.965 869.802 -107.586 922.085" stroke="white" stroke-opacity="0.5" stroke-width="0.58" stroke-miterlimit="10" stroke-dasharray="11.11 2.02 21.21 2.02 6.73 2.02"/>
<path opacity="0.61" d="M1440.12 22.1105C1436.34 21.1531 1432.58 20.2143 1428.8 19.3162" stroke="white" stroke-opacity="0.5" stroke-width="0.63" stroke-miterlimit="10"/>
<path opacity="0.61" d="M1424.11 18.2146C1401.9 13.0768 1379.71 9.0057 1357.55 6.00134" stroke="white" stroke-opacity="0.5" stroke-width="0.63" stroke-miterlimit="10" stroke-dasharray="20.49 2.22 7.41 2.22"/>
<path opacity="0.61" d="M1355.18 5.7286C1226.15 -11.1594 1099.48 8.47416 990.472 62.0738C893.201 109.818 810.195 184.459 749.669 279.011C727.852 313.297 708.951 349.352 693.163 386.798C660.388 463.825 638.413 547.866 604.259 623.993C571.754 695.943 525.352 762.064 459.003 793.843C401.464 821.375 334.097 820.798 266.087 815.302C214.683 811.167 161.403 800.901 109.771 796.246C83.4015 793.581 56.8277 793.64 30.4703 796.421C5.6129 799.089 -18.5251 806.388 -40.696 817.94C-81.2338 839.652 -112.637 879.739 -117.701 930.155" stroke="white" stroke-opacity="0.5" stroke-width="0.63" stroke-miterlimit="10" stroke-dasharray="10.62 2.22 20.49 2.22 7.41 2.22"/>
<path opacity="0.61" d="M1442.14 38.7962C1438.47 37.8511 1434.79 36.917 1431.13 36.0203" stroke="white" stroke-opacity="0.5" stroke-width="0.67" stroke-miterlimit="10"/>
<path opacity="0.61" d="M1425.78 34.7291C1402.29 29.1703 1378.82 24.7884 1355.36 21.5835" stroke="white" stroke-opacity="0.5" stroke-width="0.67" stroke-miterlimit="10" stroke-dasharray="20.82 2.54 8.46 2.54"/>
<path opacity="0.61" d="M1352.58 21.2504C1224.38 4.35708 1098.38 22.8687 989.422 74.8338C890.901 121.728 806.53 195.836 744.322 289.916C721.836 324.054 702.33 360.065 686.02 397.548C652.342 474.576 629.907 559.162 595.263 635.524C561.654 709.149 513.605 776.659 444.307 807.301C384.484 833.759 314.727 830.338 245.066 823.046C194.965 817.748 143.319 808.133 93.3118 804.712C67.6398 802.686 41.8252 803.397 16.3038 806.834C-7.75827 810.184 -31.0038 817.91 -52.2834 829.631C-91.1991 851.499 -121.361 889.631 -127.863 938.102" stroke="white" stroke-opacity="0.5" stroke-width="0.67" stroke-miterlimit="10" stroke-dasharray="10.66 2.54 20.82 2.54 8.46 2.54"/>
<path opacity="0.61" d="M1444.19 55.4896C1440.61 54.5492 1437.02 53.6088 1433.44 52.7167" stroke="white" stroke-opacity="0.5" stroke-width="0.71" stroke-miterlimit="10"/>
<path opacity="0.61" d="M1427.69 51.3053C1404.01 45.5709 1380.33 41.0083 1356.65 37.6174" stroke="white" stroke-opacity="0.5" stroke-width="0.71" stroke-miterlimit="10" stroke-dasharray="20.15 2.74 9.12 2.74"/>
<path opacity="0.61" d="M1353.75 37.2537C1225.14 19.5715 1098.35 36.7363 988.416 87.6683C888.648 133.76 802.901 207.318 739.105 300.87C715.945 334.879 695.829 370.865 678.991 408.407C644.354 485.469 621.636 570.471 586.383 647.165C551.688 722.453 501.979 791.46 429.707 820.878C367.764 846.242 295.298 840.163 224.148 830.881C175.27 824.541 125.339 815.455 76.9375 813.279C51.9335 811.858 26.8492 813.205 2.14107 817.295C-21.1162 821.313 -43.4679 829.457 -63.8593 841.341C-101.161 863.395 -130.164 899.645 -138.049 946.264" stroke="white" stroke-opacity="0.5" stroke-width="0.71" stroke-miterlimit="10" stroke-dasharray="10.2 2.74 20.15 2.74 9.12 2.74"/>
<path opacity="0.61" d="M1446.19 72.1376C1442.71 71.1934 1439.22 70.2726 1435.72 69.3752" stroke="white" stroke-opacity="0.5" stroke-width="0.75" stroke-miterlimit="10"/>
<path opacity="0.61" d="M1429.6 67.8815C1405.78 61.9819 1381.94 57.2577 1358.1 53.709" stroke="white" stroke-opacity="0.5" stroke-width="0.75" stroke-miterlimit="10" stroke-dasharray="19.51 2.93 9.75 2.93"/>
<path opacity="0.61" d="M1354.98 53.2536C1225.8 34.5988 1098.35 50.5929 987.283 100.327C850.06 161.811 738.602 274.462 671.722 419.156C636.107 496.262 613.061 581.732 577.243 658.706C541.425 735.679 490.054 806.009 414.849 834.356C350.653 858.527 275.644 849.944 202.971 838.616C130.298 827.287 55.8886 813.46 -12.0774 827.789C-75.8754 841.263 -133.965 885.455 -148.206 954.434" stroke="white" stroke-opacity="0.5" stroke-width="0.75" stroke-miterlimit="10" stroke-dasharray="9.75 2.93 19.51 2.93 9.75 2.93"/>
<path opacity="0.61" d="M-110.518 862.841C-83.791 830.681 -44.5548 809.706 -3.1208 801.85C67.4459 788.536 144.246 805.508 219.26 819.383C294.275 833.258 372.184 843.583 438.155 817.898C511.868 789.444 561.998 719.74 596.987 643.752C631.976 567.765 654.651 483.591 690.107 408.059C756.763 266.332 869.153 157.853 1006.05 102.76C1138.99 49.1494 1294.32 45.9165 1444.56 92.5193" stroke="white" stroke-opacity="0.5" stroke-width="0.78" stroke-miterlimit="10" stroke-dasharray="10.46 2.65 20.55 2.65 8.83 2.65"/>
<path opacity="0.61" d="M-110.33 844.487C-83.1398 807.539 -39.9354 783.692 5.66591 776.011C78.919 763.686 158.087 783.766 235.364 800.007C312.64 816.249 393.461 828.336 461.257 801.308C533.518 772.473 582.356 703.65 616.535 628.638C650.713 553.626 672.998 470.759 708.474 396.721C774.993 257.936 888.288 153.796 1024.97 104.825C1157.67 57.376 1311.41 61.9283 1456.75 115.959" stroke="white" stroke-opacity="0.5" stroke-width="0.81" stroke-miterlimit="10" stroke-dasharray="10.69 2.24 20.64 2.24 7.46 2.24"/>
<path opacity="0.61" d="M-109.531 826.101C-82.2777 784.323 -35.1863 757.552 14.5107 750.137C90.3832 738.816 172.017 761.997 251.524 780.724C331.031 799.452 414.839 813.256 484.435 784.8C555.294 755.756 602.797 687.612 636.131 613.645C669.466 539.679 691.413 458.039 726.834 385.538C793.193 249.657 907.372 149.819 1043.8 107.069C1176.17 65.5845 1328.5 78.1916 1469 139.743" stroke="white" stroke-opacity="0.5" stroke-width="0.84" stroke-miterlimit="10" stroke-dasharray="10.96 1.85 20.81 1.85 6.16 1.85"/>
<path opacity="0.61" d="M-127.964 882.499C-127.665 793.36 -55.1599 734.544 23.3538 724.264C101.868 713.984 185.803 740.287 267.664 761.453C349.525 782.619 436.232 798.293 507.573 768.314C576.947 739.134 623.191 671.626 655.715 598.635C688.239 525.644 709.815 445.3 745.144 374.359C811.373 241.39 926.461 145.814 1062.63 109.315C1198.8 72.8156 1354.77 95.5832 1493.64 169.884" stroke="white" stroke-opacity="0.5" stroke-width="0.88" stroke-miterlimit="10" stroke-dasharray="11.5 1.5 21.5 1.5 5 1.5"/>
<path opacity="0.61" d="M-122.417 860.987C-124.25 768.803 -48.9378 707.618 32.1547 698.316C113.247 689.013 199.513 718.446 283.78 742.095C368.047 765.745 457.601 783.243 530.725 751.72C598.655 722.431 643.642 655.606 675.294 583.527C706.946 511.448 728.237 432.55 763.555 363.222C829.621 233.108 945.533 141.818 1081.46 111.559C1217.38 81.3004 1371.8 112.229 1505.53 194.401" stroke="white" stroke-opacity="0.5" stroke-width="0.91" stroke-miterlimit="10" stroke-dasharray="11.88 1.13 21.88 1.13 3.75 1.13"/>
<path opacity="0.61" d="M-116.784 839.626C-120.748 744.396 -42.6858 680.876 41.0417 672.518C124.769 664.16 213.387 696.886 299.983 722.889C386.578 748.891 479.068 768.362 553.926 735.299C620.46 705.897 664.074 639.599 694.914 568.622C725.754 497.644 746.613 419.852 781.821 351.968C847.764 224.863 964.631 137.784 1100.24 113.73C1235.85 89.6771 1388.78 128.831 1517.36 218.758" stroke="white" stroke-opacity="0.5" stroke-width="0.94" stroke-miterlimit="10" stroke-dasharray="12.25 0.75 22.25 0.75 2.5 0.75"/>
<path opacity="0.61" d="M-111.195 818.19C-117.268 719.951 -36.5349 653.917 49.9227 646.623C136.38 639.329 227.371 675.085 316.179 703.584C404.987 732.083 500.586 753.526 577.122 718.78C642.288 689.399 684.581 623.548 714.573 553.567C744.566 483.587 765.109 407.059 800.225 340.734C866 216.563 983.743 133.815 1119.17 116.017C1254.6 98.2195 1405.84 145.562 1529.27 243.294" stroke="white" stroke-opacity="0.5" stroke-width="0.97" stroke-miterlimit="10" stroke-dasharray="12.63 0.38 22.63 0.38 1.25 0.38"/>
<path opacity="0.61" d="M-105.594 796.772C-113.865 695.376 -30.3214 627.021 58.7104 620.783C147.742 614.544 241.177 653.364 332.238 684.26C423.3 715.156 521.906 738.48 600.217 702.219C663.946 672.699 704.876 607.519 734.106 538.511C763.337 469.504 783.42 394.248 818.503 329.499C884.162 208.306 1002.74 129.786 1137.92 118.209C1273.09 106.633 1422.86 162.219 1541.12 267.736" stroke="white" stroke-opacity="0.5" stroke-miterlimit="10"/>
</g>
<path d="M27.7206 977.888C32.8402 859.857 111.14 742.042 222.593 684.428C299.111 644.973 385.494 634.16 469.026 623.707C559.03 612.433 652.097 600.775 731.287 552.883C832.96 491.373 893.178 379.032 929.716 299.856C940.268 276.949 950.513 253.344 960.411 230.519C992.931 155.548 1026.56 78.0471 1077.66 10.9105C1112.33 -34.5761 1157.06 -73.9906 1203.48 -100.019C1255.69 -129.281 1309.56 -141.795 1359.29 -136.181" stroke="white" stroke-opacity="0.5"/>
</g>
</g>
<defs>
<linearGradient id="paint0_linear" x1="720" y1="0" x2="720" y2="900" gradientUnits="userSpaceOnUse">
<stop stop-color="#0DBFBF"/>
<stop offset="1" stop-color="#22689B"/>
</linearGradient>
<clipPath id="clip0">
<rect width="1440" height="900" fill="white"/>
</clipPath>
</defs>
</svg>
